<?xml version="1.0" encoding="UTF-8" standalone="no"?>
<!-- Creator: CorelDRAW -->
<svg xmlns:dc="http://purl.org/dc/elements/1.1/" xmlns:cc="http://creativecommons.org/ns#" xmlns:rdf="http://www.w3.org/1999/02/22-rdf-syntax-ns#" xmlns:svg="http://www.w3.org/2000/svg" xmlns="http://www.w3.org/2000/svg" xmlns:xlink="http://www.w3.org/1999/xlink" xmlns:sodipodi="http://sodipodi.sourceforge.net/DTD/sodipodi-0.dtd" xmlns:inkscape="http://www.inkscape.org/namespaces/inkscape" xml:space="preserve" width="736.89709" height="687.51227" style="fill-rule:evenodd" viewBox="0 0 207.96874 194.03124" id="svg2" version="1.1" inkscape:version="0.48.0 r9654" sodipodi:docname="Nuclear_Explosion_by_dasnolojy.svg" inkscape:export-filename="D:\Desktop\Nuclear_Explosion_by_dasnolojy.png" inkscape:export-xdpi="90" inkscape:export-ydpi="90"><sodipodi:namedview pagecolor="#ffffff" bordercolor="#666666" borderopacity="1" objecttolerance="10" gridtolerance="10" guidetolerance="10" inkscape:pageopacity="0" inkscape:pageshadow="2" inkscape:window-width="1680" inkscape:window-height="988" id="namedview13" showgrid="false" inkscape:snap-bbox="true" inkscape:bbox-nodes="true" inkscape:bbox-paths="true" inkscape:snap-bbox-edge-midpoints="true" inkscape:snap-bbox-midpoints="true" inkscape:object-paths="true" inkscape:snap-intersection-paths="true" inkscape:object-nodes="true" inkscape:snap-smooth-nodes="true" inkscape:snap-midpoints="true" inkscape:snap-object-midpoints="true" inkscape:snap-center="true" inkscape:snap-page="true" fit-margin-top="0" fit-margin-left="0" fit-margin-right="0" fit-margin-bottom="0" inkscape:zoom="0.70152381" inkscape:cx="699.07564" inkscape:cy="333.78931" inkscape:window-x="-8" inkscape:window-y="-8" inkscape:window-maximized="1" inkscape:current-layer="svg2"/>
 <defs id="defs4"><linearGradient id="linearGradient3019"><stop style="stop-color:#241c1c;stop-opacity:1" offset="0" id="stop3021"/><stop id="stop3039" offset="0.08892277" style="stop-color:#333333;stop-opacity:1"/><stop id="stop3037" offset="0.15043162" style="stop-color:#4d4d4d;stop-opacity:1"/><stop id="stop3035" offset="0.2779946" style="stop-color:#666666;stop-opacity:1"/><stop id="stop3033" offset="0.39179021" style="stop-color:#c8ab37;stop-opacity:1"/><stop id="stop3031" offset="0.53490263" style="stop-color:#37abc8;stop-opacity:1"/><stop id="stop3029" offset="0.66035521" style="stop-color:#d45500;stop-opacity:1"/><stop id="stop3027" offset="0.79693663" style="stop-color:#803300;stop-opacity:1"/><stop style="stop-color:#2b1100;stop-opacity:1" offset="1" id="stop3023"/></linearGradient><linearGradient id="linearGradient2997"><stop style="stop-color:#ff0000;stop-opacity:1;" offset="0" id="stop2999"/><stop id="stop3017" offset="0.12111825" style="stop-color:#782121;stop-opacity:1"/><stop id="stop3015" offset="0.1871912" style="stop-color:#550044;stop-opacity:1"/><stop id="stop3013" offset="0.25620157" style="stop-color:#550000;stop-opacity:1"/><stop id="stop3009" offset="0.38227078" style="stop-color:#aa4400;stop-opacity:1"/><stop id="stop3007" offset="0.46042046" style="stop-color:#ff6600;stop-opacity:1"/><stop id="stop3005" offset="0.77030945" style="stop-color:#ffcc00;stop-opacity:1"/><stop style="stop-color:#ffff00;stop-opacity:1" offset="1" id="stop3001"/></linearGradient>
  <style type="text/css" id="style6">
   
    .str0 {stroke:#AAA9A9;stroke-width:0.0762}
    .fil1 {fill:#0093DD}
    .fil0 {fill:#1F1A17}
   
  </style>
 
  
  
 
   
   
  <linearGradient inkscape:collect="always" xlink:href="#linearGradient2997" id="linearGradient3003" x1="252.46877" y1="202.03125" x2="252.4731" y2="7.9959002" gradientUnits="userSpaceOnUse"/><linearGradient inkscape:collect="always" xlink:href="#linearGradient3019" id="linearGradient3025" x1="252.64369" y1="206.1002" x2="275.97702" y2="26.674917" gradientUnits="userSpaceOnUse" gradientTransform="translate(0,-1.9196835e-6)"/></defs>
 <polygon id="_128636152" class="fil0 str0" points="159.266,15.059 160.327,17.0522 165.895,16.6483 169.235,20.1211 168.967,22.6088 174.282,22.8201 179.609,30.7134 178.89,33.4388 188.349,38.0022 196.39,46.2155 189.515,53.922 193.165,56.6683 190.013,73.5789 171.688,80.9674 166.042,79.1431 162.071,82.9506 162.245,84.5356 165.733,86.1966 170.466,92.3422 171.214,95.1658 180.598,101.561 179.934,115.679 168.307,121.492 161.414,121.907 161.746,123.9 163.739,126.558 164.404,134.697 168.473,136.275 172.958,146.241 170.715,153.881 173.124,155.874 182.01,157.203 184.585,162.933 188.073,162.186 195.63,161.355 199.284,167.418 202.523,166.089 212.406,166.754 217.223,173.231 222.039,171.986 228.185,175.806 233.168,175.889 236.241,183.862 240.227,181.702 248.698,184.941 252.435,194.409 247.951,201.385 52.0393,201.966 44.565,196.485 50.4614,186.021 54.946,185.439 55.6935,178.962 61.756,172.982 67.3203,174.56 70.6422,169.992 79.1131,166.671 83.1825,167.833 89.3281,161.771 98.8786,163.515 102.118,158.615 106.685,160.774 111.419,154.545 110.007,152.635 115.987,134.531 118.229,132.538 117.897,129.382 120.388,122.904 118.312,122.904 101.37,113.852 102.782,102.059 111.004,96.0793 112.416,93.5048 115.217,84.2713 104.477,80.1643 103.93,76.0723 96.0973,74.4907 89.6951,65.0157 90.0801,60.0291 82.4284,52.7096 98.5773,39.9016 101.371,39.7996 100.963,30.2907 104.002,26.429 110.555,20.1514 114.477,21.2762 113.314,15.229 124.654,10.4235 128.21,13.4056 132.668,9.9252 140.561,8.034 146.205,13.4849 150.527,11.9637 " style="fill:url(#linearGradient3003);fill-opacity:1;stroke:#aaa9a9;stroke-width:0.0762" transform="translate(-44.5,-8.0000055)" inkscape:export-filename="D:\Desktop\_128724952.png" inkscape:export-xdpi="90" inkscape:export-ydpi="90"/><path id="_128724952" class="fil1" d="m 103.32,56.841595 3.3287,5.539 -6.1089,2.8833 8.0183,2.5967 7.806,-3.3235 2.5861,-0.8263 7.5883,3.6411 5.1884,-8.9457 -3.391,-7.1586 5.6516,6.7819 -4.8981,10.1727 12.8103,-5.4632 -2.449,-10.1727 2.6925,4.4366 1.5364,-6.0357 -4.7261,-5.4088 -7.4016,2.5622 4.8945,-2.7193 -1.5087,-6.3427 -1.7936,0.7243 -3.0391,-0.954 -3.1178,9.2053 -11.5543,-1.2004 10.9541,0 2.3661,-8.4293 -3.2043,-1.0057 7.3758,1.0678 10.0366,-4.3909 -1.161,-1.6122 -14.5182,-6.5359 -15.7265,3.1296 -1.9559,8.036 9.1422,-2.637 -10.7989,5.7996 2.6058,5.0114 -4.6068,5.923 3.0825,-5.8652 -2.5016,-4.1927 -3.1533,2.1256 -12.8991,-6.2236 -8.6785,5.3619 0.7348,5.1704 4.0472,4.8239 -4.8395,-4.2699 -1.4233,-6.2629 9.2049,-5.523 -4.4905,-1.4687 -17.8248,2.4597 -7.3768,-2.974 -0.79,1.4658 3.0582,1.2009 -7.9709,-1.1388 -2.118,1.5885 4.3604,2.9729 -1.0969,5.4842 -0.4386,-4.8261 -5.0675,-1.9491 -3.6102,2.7077 -3.1313,3.7007 5.9781,4.5547 1.4233,5.1242 4.1283,4.5354 10.9876,-8.3028 -3.1352,-4.3668 c 1.8438,1.8438 3.432,3.432 5.0863,5.0864 l 3.2026,-4.8981 0.1884,-3.5792 1.5071,4.1444 -0.973,1.3622 1.7265,8.057 -4.9136,5.1142 9.5662,5.624 14.688,-15.0172 -1.444,-5.8937 5.6515,6.7819 4.5214,-2.0722 -0.1885,-6.2167 1.5071,6.5934 -6.5935,3.7677 -0.8721,-1.5767 -6.6576,7.1951 -2.3211,2.5873 7.3587,2.0971 10.3529,-4.6563 -0.4745,-4.7621 z m 40.2935,2.4089 3.5723,-9.7066 -7.9477,-5.6934 -1.739,0.979 -1.3787,-6.3081 7.8127,-3.0956 2.9912,4.1546 -3.4161,4.8393 5.4088,-5.4087 -6.2628,-7.6861 -11.6655,-5.4008 2.8133,-2.8136 -4.6066,-7.4586 -6.4344,0.1462 0.8271,-2.9538 -2.5943,-2.321301 -6.2945,0.2569 -0.6898,-2.2570995 -8.0334,-3.0603 -4.3991,1.9126 -5.7382,-5.7379 -7.0767,1.53 -4.967,4.0471 -3.3006,-2.7506 -10.3105,4.1682 1.9744,6.3618005 -1.0096,-5.8402005 10.0039,-2.7152 2.4131,3.0712 -0.1812,4.1680005 -1.3545,0 -3.2905,5.265 -7.6781,3.7293 1.1311,6.5697 2.9064,5.6043 -7.5635,1.6148 -7.436,-4.2818 -0.3177,-1.0238 3.8211,-5.6314 -0.8775,-5.4843 3.8122,-4.9046 5.6208,0.9558 -5.9231,-1.9743 -5.2649,5.4844 1.0969,5.7037 -3.2615,3.9958 -1.2684,-5.3767 0.5693,9.3941 1.274,0.7674 -0.828,1.5429 -4.4315,-1.7408 -14.2335,11.1022 7.3898,6.5475 0.0116,5.1239 5.1869,6.9473 8.4831,2.396 1.2537,4.8357 9.7961,3.391 -7.5354,-4.3329 -0.3418,-3.2467 3.3521,-1.7606 10.7218,6.1751 -3.6121,3.444 -1.2659,-2.3512 0.5996,2.426 -0.3278,0.873 -0.5591,0.5332 -4.0322,10.1555 0,4.1245 -2.0112,-0.7098 -6.8179,5.7123 -1.1055,9.950405 14.0308,7.3193 7.0944,-1.8303 -0.0192,0.005 -4.8113,11.5468 0.8856,4.5384 -2.8276,1.045 -6.1903,16.1434 11.307,5.7145 6.2609,-3.0442 1.3432,3.5749 -3.6297,-1.737 -2.1511,1.6546 -13.0254,6.9455 -3.2013,-1.555 4.3372,-5.4915 7.4347,0.9011 -7.8854,-2.7035 -5.6379,6.4433 -4.2494,-2.064 -3.2913,4.754 -9.5761,-1.6985 -5.4072,5.6323 2.8754,2.3003 -2.3295,2.0902 -5.54,-5.2095 -7.9524,3.0421 -3.5134,5.1587 -5.7545,-2.0036 -5.7183,5.1269 0,7.4931 -5.1269,0.1971 -4.9297,8.2818 5.5212,4.5354 7.7709,0.1971 1.8716,-3.0925 1.3486,3.1056 12.1486,-0.0797 1.5098,-4.1465 -2.3092,2.9029 -10.2272,-0.7333 -3.1966,-5.6859 13.4878,-4.4054 9.0152,7.4905 -4.3323,4.66 5.7439,-4.1028 3.0212,3.9974 21.8584,0.2491 2.4726,-3.8724 0.9795,3.6377 37.2994,-0.1314 1.3268,-2.941 3.8022,2.8972 22.4415,0 1.0954,-4.0895 3.2877,3.9142 16.4805,0 1.8999,-2.8499 4.3579,3.2949 5.0944,-1.9246 0.3945,1.4796 9.117,0.1753 2.8051,-3.8572 -3.5065,2.2792 -6.6624,0.3507 -1.5778,-3.6818 2.1039,-2.8052 3.3311,1.9286 5.7857,-2.4545 2.525,1.7823 -0.5963,0.8475 2.1037,5.6104 20.513,0.1752 3.8571,-5.4349 -2.9805,-8.2404 -6.8376,-2.8051 -5.2597,3.6819 -3.2443,-9.5095 -12.2049,2.0314 -2.3572,-3.2178 4.7302,-2.0063 4.4807,2.0142 -4.667,-3.4376 -5.3991,2.037 -5.1826,-6.8466 -8.5909,-1.4025 -4.4882,2.7367 -2.8886,-7.0564 -7.0987,0.5258 -4.7324,2.3663 -2.3662,-6.5728 -7.6246,-1.5776 -6.8184,4.2615 -1.5332,-4.7913 3.8641,-2.8174 2.2121,-7.1648 -3.4352,-8.9564 -5.0413,-1.7431 -0.1341,-9.1417 -0.7814,-1.0056 -2.6864,-4.7759 -1.3187,-2.2606 0.3768,4.1445 3.2095,3.0699 0.5741,1.0334 -0.1964,2.402 -8.1539,-2.9007 0.0235,-0.2343 0.022,0.209 1.1302,-4.5213 -0.5999,-1.1998 0.3228,-3.2217 0.4392,-0.5369 4.9417,0.915 0.0455,3.295 0.8361,-3.1096 -0.0192,-0.0256 6.7841,1.2562 9.9505,-4.3349 1.8518,-12.862405 -9.0292,-5.8965 -1.6391,0.9784 0.3901,-4.5522 -3.883,-5.8244 -4.0322,-1.7922 -2.987,-4.4805 -3.7336,-1.792 2.8376,2.0908 2.6882,4.4803 4.779,2.5389 3.2857,4.7791 -0.4097,5.1881 -3.2862,1.9618 -4.1847,-0.9257 -0.527,-6.2949 -1.4765,-3.4672 0.046,0.054 -0.077,-0.1269 -0.3968,-0.9317 -0.438,-0.4433 -2.2907,-3.773 0.9419,-3.956 -2.0722,4.1445 0.7557,0.8871 -0.6335,-0.641 3.4798,4.1592 1.6271,4.1747 0.2036,6.0384 -4.2973,-1.103 -0.5665,0.2755 -0.2871,-3.8766 -4.3311,-4.9283 -1.2569,-4.7764 -1.0989,-5.8611 -0.1281,1.7926 -1.3138,-1.7908 -3.9626,-0.3012 -1.8346,2.1496 2.1998,-1.7867 3.3264,0.4353 1.2718,1.9763 0.5478,3.5555 0.039,0.4491 -1.9441,-1.3547 -1.8562,0.312 -0.153,3.9516 2.0912,2.9136 0.2913,4.2596 0.0433,-4.4758 -1.8023,-2.7816 0.1787,-3.3248 0.63,-0.1263 0.6486,-0.13 2.148,2.3493 0.4412,2.8636 4.779,4.9284 0.4162,4.0234 -5.5902,2.718 7.2374,-2.9229 7.3696,2.7667 -4.55,2.7165 12.8897,-5.1959 6.4163,4.8273 -0.1598,2.0075 -3.1149,3.612105 -9.0291,-2.671205 9.7662,3.501005 1.9742,-1.8026 -0.9471,5.8566 -8.3978,3.1506 -12.4396,-2.0256 1.9363,-3.5205 -0.8924,-1.1296 2.2221,-1.8575 4.3825,0.9601 -4.6066,-1.4742 -2.8359,1.835 -3.2449,-3.124905 -6.6337,4.054005 6.6864,-3.289905 3.277,3.816805 -2.5838,3.2925 -1.6673,-0.3184 -8.1078,0.9214 -2.6355,-0.7752 1.5299,-1.9888 -3.3168,-6.080805 1.4742,5.159505 -2.2113,3.3167 -3.6854,-0.9212 -2.8827,0.6878 -4.6723,-4.0047 -5.8965,1.6583 -3.8696,-0.3684 4.3166,1.4048 5.2652,-0.852 2.9455,2.618 -11.4217,2.7258 -11.8204,-5.7909 0.1151,-4.645605 2.4919,2.461305 4.0538,-0.6855 -3.6724,0.0658 -2.9181,-3.374105 0.1411,-1.8511 5.3438,-4.7911 6.0808,0.1843 -3.3579,-1.1851 0,-2.2922 0,-1.9993 2.4499,-6.2037 4.9873,-0.7094 -1.7748,1.6734 -1.627,4.1181 1.788,-3.6504 2.3199,-1.7129 -0.5784,-1.1628 -4.7927,0.6105 1.1107,-2.8196 6.1232,-5.8244 4.9104,0.1014 0.4959,1.2605 -3.1662,4.4625 3.7338,-4.1816 -0.7469,-2.0908 -5.0728,-0.2671 3.235,-3.3106 10.5621,2.3673 2.952,-2.0797 11.5536,3.0217 8.7845,-3.5447 2.8755,1.2941 -3.7478,6.9602 6.3271,-5.7997 5.3527,2.4088 16.0128,-7.5354 0.7535,-2.8258 -1.1119,-1.6047 z m -60.2198,61.984905 -0.4586,-2.1692 4.3329,-3.7677 -2.6374,4.3329 -0.4038,4.1033 0.1497,0.4489 2.2942,-0.8602 3.0698,4.5382 3.2668,-10.9421 -2.9566,16.5001 4.101,4.7287 -3.4156,9.0497 1.8624,-8.7414 -4.3884,-4.491 1.2112,-4.6522 -3.0374,-4.5563 -2.0074,0.5737 -2.9795,3.2502 2.2761,2.6781 -0.7716,-0.5042 0.1142,0.1469 0.6888,4.1328 -1.6826,4.4358 3.987,3.7294 -5.709,-3.2128 2.5436,-4.9524 -0.891,-4.8997 -2.9429,-1.9231 -4.0537,3.0124 -3.3901,10.3226 7.2572,4.6994 7.2266,-1.7697 1.0537,6.2176 5.2244,2.5002 3.6031,-8.5164 1.7219,-8.4378 -3.6162,-7.0604 5.1661,7.7492 -1.8943,7.9212 -1.8972,6.6406 8.212,-7.5371 6.5948,1.3609 -0.3675,-0.1364 -6.404,-9.954 3.4412,-9.8933 -1.1471,9.75 2.8322,4.0654 3.3333,-3.2052 4.3014,2.5809 2.4376,-1.5772 -2.1508,2.8676 -4.0147,-2.0074 -2.5099,3.3465 3.2978,4.7344 6.1051,1.2875 3.3081,-2.4293 2.2293,-5.4352 -2.5635,-7.4931 -5.5212,-2.3661 0.5521,-5.8273 -9.0189,-3.7144 0.8967,-10.5707 -2.9762,-0.5512 -0.005,-9e-4 -2.7638,1.0249 -2.8538,6.0337 0.5916,14.1973 -2.62,-11.0424 -0.0563,0.0676 0,-0.3053 -0.899,-3.7891 2.8867,-5.3037 -1.4388,0.2225 -3.9717,-1.2399 -1.4324,0.9952 -1.9744,-0.6619 -0.0232,0.002 0.4001,2.9616 -1.0541,-2.1323 -5.0147,5.0453 -5.4621,-0.8496 -3.2772,8.8606 1.0206,3.164 0.6787,-0.251 1.6618,1.9466 3.1316,-3.4038 -0.4301,-3.1544 0.0208,0.0628 z m 10.9722,-46.801205 -0.8812,-3.0294 1.6955,3.2025 3.2025,-1.3187 -3.9203,3.0067 0,-4e-4 -0.0957,4.7912 1.2247,6.4039 4.331,4.0324 0.2987,8.2139 -1.0156,-7.9866 -4.1815,-3.5485 -5.2093,4.9225 -0.4958,8.106105 -0.1654,-5.160305 -2.929,1.2626 -4.2072,-0.9627 4.2806,0.4842 2.7541,-1.5009 -0.1542,-2.2533 5.7487,-6.0581 -0.7969,-5.9404 0.5163,-6.6667 z m -7.692,-0.0247 3.4199,-2.0628 -3.5772,3.3788 -0.4097,11.4301 -7.6007,6.6428 -1.1348,7.282005 0.1535,-2.883405 -3.5388,-1.4807 -5.1838,0.5771 5.0355,-1.276 3.7565,1.3457 0.2251,-3.7499 2.9907,-2.8098 -2.905,-0.5965 -0.3089,-2.2933 3.5515,-4.5275 -3.0317,4.5472 0.3609,1.7027 2.9694,0.4271 3.4876,-3.3198 1.0994,-11.9475 1.1158,-3.7311 1.6615,-0.7686 -1.3851,0.9274 -0.7516,3.186 z m -15.8581,-24.355 -0.1257,6.6563 -7.1586,6.7817 -8.6657,-2.2605 10.7984,-9.5841 2.0118,2.8022 3.1398,-4.3956 z m 33.4704,-34.0423 -5.8232,-3.4411 -6.0082,2.5945 6.1446,-1.775 3.8444,3.0136 -4.3096,0.9171 8.607,-0.1914 2.104,6.312 4.5036,3.8362 -2.8625,0.6307 -2.5745,10.2831 -5.458,3.1737 -5.5608,-3.1946 2.4676,-8.26 7.4587,-2.413 -7.586,0.831 -1.4367,2.4208 -6.3335,-6.1037 -7.8973,1.9745 7.678,-0.4389 5.8824,5.5862 -1.32,5.7165 -10.4173,-3.7741 -8.986,0.2854 -3.4207,-5.2889 -0.3851,-4.7188 3.0169,-1.386 5.4924,0.794 0.1547,1.4135 0.3633,-1.8174 -3.9474,-1.338 3.037,-1.3953 2.4131,-4.3875 5.2648,-0.2194 6.5813,4.8261 -6.3618,-6.8005 -2.295,0 -0.557,-4.8262005 -0.2555,-0.213 3.9961,-4.3776 6.1477,-0.984 6.3117,6.3937 4.0167,-2.8691 7.4596,2.8691 2.6778,5.7382005 -1.0016,-3.2783 5.4722,-0.651601 2.0971,1.646001 -1.7411,2.7147 -1.3972,0.0319 -6.0059,4.4658 6.4983,-3.4475 8.9406,0.5172 3.0712,5.265 -2.934,2.3841 -1.8311,-0.8479 -10.8419,2.389 -5.6821,-3.7289 -3.6342,-7.4595 -2.8376,0.6036 z m -22.0748,94.181005 -0.5315,2.2394 4.1268,0.4856 4.8096,-4.3114 -0.9809,-0.3288 -7.424,1.9152 z m 93.9845,63.6829 2.9712,5.3152 -6.9313,-9.0993 -4.1385,2.7457 -3.9868,0.1533 -4.9092,-4.2078 5.2599,2.6298 5.2587,-1.4342 0.8776,-1.5463 -4.2078,-5.6104 -7.1884,-0.8766 -11.9219,6.6624 -6.6624,-5.0844 6.3117,2.4546 5.9512,-3.4794 -2.4578,-6.1882 -5.7841,0.526 -6.31,4.2065 -3.4179,-7.3616 -4.9954,-1.3145 -6.7397,4.3424 1.2185,3.8079 -9.2021,8.4134 7.3617,-8.6763 -3.4179,-11.0424 -3.9414,-0.6916 -3.2955,5.0257 -7.9024,1.2859 5.7727,-1.6751 2.0101,-5.04 -7.6297,-1.534 -10.1914,10.2273 0.2006,9.2283 6.047,7.0988 -7.6245,-6.5728 -0.5258,-11.8313 -9.1768,-3.4668 -15.2744,7.6735 -8.6762,-3.9438 -5.7842,7.8875 5.5213,6.31 -7.6245,-6.31 2.4166,-3.4908 -7.7349,-1.9051 -3.3794,3.83 2.4782,2.0277 4.2807,-0.2253 -4.7313,1.8024 -0.0072,-0.006 -3.8228,3.0188 -0.6759,4.4216 -0.9012,-5.4071 0.6111,-0.4114 -4.7676,-4.9596 -7.1388,2.8793 -2.733,4.754 3.5604,1.2301 -10.0565,-1.7748 -4.1409,4.5354 -0.5916,7.8874 -6.1128,0.5916 -3.5494,5.7183 3.5494,2.7606 6.9015,0.3945 1.6457,-3.1417 -1.9177,-3.7199 9.0453,-3.5666 0.2398,-6.5274 8.9215,-4.6222 6.3675,5.2296 9.3555,1.7785 5.2296,-5.4309 -4.8267,6.9364 -10.0428,-1.7546 -6.546,-4.233 -6.3827,3.2135 -0.0182,4.5041 5.2515,-1.5539 8.3967,8.1531 0.181,-3.045 3.6921,-4.0512 -2.0968,4.6247 0.0176,2.8863 3.6568,4.123 18.7752,0.4825 2.5398,-2.4443 -0.1129,-4.0289 -5.0329,-7.0236 5.774,5.7229 8.7891,-4.6848 -4.4686,-9.7308 4.3871,7.11 8.0634,-3.1498 5.2584,3.1549 -5.127,-1.8404 -7.1578,3.5162 1.148,1.8606 -9.1169,5.0844 1.8411,6.2241 32.6979,-1.0517 3.2968,-4.1802 -6.7841,-3.6208 -7.8454,4.2927 8.0208,-5.8706 7.7446,3.3355 0.827,-1.4083 -3.1989,-13.4099 6.0037,13.9797 -2.0823,4.0193 3.5287,2.994 18.4537,0.3507 2.3231,-7.4515 -6.4427,-16.6102 4.5287,8.0321 4.9379,1.4336 5.7857,-3.8572 -4.5584,6.3116 -4.3079,-0.5942 2.9052,5.1527 -0.8283,3.0925 3.9843,4.6218 14.3765,-0.8767 2.8052,-5.2596 -4.383,-5.0845 3.8571,-7.8896 -1.578,8.0649 5.2597,5.0844 -2.5293,3.794 3.5274,2.8414 4.4181,-2.7613 -0.3318,-1.2442 3.3312,-4.5584 4.0324,2.6299 5.0845,-2.6299 3.6764,2.3976 1.9339,-2.7482 -1.9285,5.2596 2.1039,3.3312 18.5844,-0.1752 2.6298,-4.0326 -2.6298,-6.487 -5.2597,-1.7532 -5.9611,3.5065 -3.989,-9.5979 -10.0489,1.8921 z" inkscape:connector-curvature="0" style="fill:url(#linearGradient3025);fill-opacity:1" inkscape:export-xdpi="90" inkscape:export-ydpi="90"/>
<text xml:space="preserve" style="font-size:28.22222328px;font-style:normal;font-weight:bold;line-height:125%;letter-spacing:0px;word-spacing:0px;fill:#000000;fill-opacity:1;stroke:none;font-family:Sans;-inkscape-font-specification:Sans Bold" x="289.65515" y="20.197933" id="text3041" sodipodi:linespacing="125%"><tspan sodipodi:role="line" id="tspan3043" x="289.65515" y="20.197933">Explosion</tspan><tspan sodipodi:role="line" x="289.65515" y="43.684845" id="tspan3045" style="font-size:14.11111164px">a reaction between Oxygen and Hydrogen</tspan></text>

<metadata><rdf:RDF><cc:Work><dc:format>image/svg+xml</dc:format><dc:type rdf:resource="http://purl.org/dc/dcmitype/StillImage"/><cc:license rdf:resource="http://creativecommons.org/licenses/publicdomain/"/><dc:publisher><cc:Agent rdf:about="http://openclipart.org/"><dc:title>Open Clip Art Library</dc:title></cc:Agent></dc:publisher><dc:title>Nuclear Explosion</dc:title><dc:date>2012-02-29T05:51:43</dc:date><dc:description/><dc:source>http://openclipart.org/detail/168613/nuclear-explosion-by-kg</dc:source><dc:creator><cc:Agent><dc:title>kg</dc:title></cc:Agent></dc:creator><dc:subject><rdf:Bag><rdf:li>Explosion</rdf:li><rdf:li>Nuclear</rdf:li><rdf:li>clip art</rdf:li><rdf:li>clipart</rdf:li></rdf:Bag></dc:subject></cc:Work><cc:License rdf:about="http://creativecommons.org/licenses/publicdomain/"><cc:permits rdf:resource="http://creativecommons.org/ns#Reproduction"/><cc:permits rdf:resource="http://creativecommons.org/ns#Distribution"/><cc:permits rdf:resource="http://creativecommons.org/ns#DerivativeWorks"/></cc:License></rdf:RDF></metadata></svg>
